# xmcd
#
# Track frame offsets: 
#        150
#        19343
#        31257
#        47502
#        67995
#        83015
#        101322
#        114113
#        130426
#        144094
#        162396
#        176649
#        191127
#        206970
#        218555
#        236104
#
# Disc length: 3360 seconds
#
# Revision: 0
# Processed by: cddbd v1.5.2PL0 Copyright (c) Steve Scherf et al.
# Submitted via: ExactAudioCopy v1.1
#
DISCID=d80d1e10
DTITLE=McKinley Mitchell - McKinley Mitchell
DYEAR=1978
DGENRE=R&B
TTITLE0=Open House At My House
TTITLE1=You're So Fine
TTITLE2=The Town I Live In
TTITLE3=Sane Old Dream
TTITLE4=You Know I've Tried
TTITLE5=Run To Love
TTITLE6=Dream Lover
TTITLE7=The End Of The Rainbow
TTITLE8=Mr. Music Man
TTITLE9=Follow The Wind
TTITLE10=Days Got Brighter
TTITLE11=Poverty
TTITLE12=Falling For Your Love
TTITLE13=Slave For Your Love
TTITLE14=When It Rains It Pours
TTITLE15=Trouble Blues
EXTD=
EXTT0=
EXTT1=
EXTT2=
EXTT3=
EXTT4=
EXTT5=
EXTT6=
EXTT7=
EXTT8=
EXTT9=
EXTT10=
EXTT11=
EXTT12=
EXTT13=
EXTT14=
EXTT15=
PLAYORDER=
